<svg xmlns="http://www.w3.org/2000/svg" viewBox="0 0 513.03 851.16"><defs><style>.cls-1{fill:#ea2929;}.cls-2{fill:#f3eb3d;}.cls-3{fill:#a5cd39;}.cls-4{fill:#221f1f;}.cls-5{fill:#acdfe8;}.cls-10,.cls-11,.cls-12,.cls-6,.cls-7{fill:none;stroke:#221f1f;stroke-miterlimit:10;}.cls-6{stroke-width:2px;}.cls-8{fill:#f89922;}.cls-9{fill:#ea4094;}.cls-10{stroke-width:3px;}.cls-11{stroke-width:0.75px;}.cls-12{stroke-width:1.42px;}</style></defs><title>characters</title><g id="Layer_2" data-name="Layer 2"><g id="Layer_1-2" data-name="Layer 1"><polygon class="cls-1" points="30.87 276.9 15.56 296.29 12.92 305.14 11.73 314.47 12.45 327.63 14.6 340.55 20.1 349.41 26.8 357.3 36.13 366.16 41.88 369.51 50.25 372.14 56.47 373.57 68.92 374.05 78.97 372.86 88.78 370.46 100.26 365.68 108.64 357.78 112.22 353 116.29 345.34 119.64 335.53 122.28 326.44 121.8 308.97 119.16 297.24 115.1 288.87 109.35 279.06 98.11 271.4 89.73 268.05 81.84 263.98 64.85 263.74 45.47 269.49 36.61 272.6 30.87 276.9"/><polygon class="cls-2" points="118.83 246.37 118.57 258.38 114.39 264.91 108.12 267.78 100.55 269.09 93.5 269.09 89.73 268.05 81.84 263.98 77.05 259.43 76.26 252.9 77.05 245.06 79.92 238.01 87.23 232.53 95.33 229.66 103.42 229.66 111.78 234.1 117 239.58 118.83 246.37"/><polygon class="cls-3" points="32.39 242.45 39.18 241.15 44.14 241.15 49.36 242.97 51.71 246.63 53.8 252.38 55.11 257.86 54.59 261.78 50.41 265.96 45.47 269.49 40.48 271.44 34.74 271.18 30.3 268.05 26.38 263.61 25.08 258.38 24.55 253.16 26.64 246.89 32.39 242.45"/><ellipse class="cls-4" cx="39.57" cy="256.64" rx="4.21" ry="5.9"/><ellipse class="cls-4" cx="98.38" cy="249.37" rx="4.21" ry="5.9"/><polygon class="cls-5" points="242.96 231.76 296 230.59 293.64 284.21 245.32 284.21 242.96 231.76"/><line class="cls-6" x1="270.07" y1="284.21" x2="270.07" y2="297.18"/><line class="cls-7" x1="261.89" y1="361.94" x2="261.93" y2="374.49"/><line class="cls-7" x1="256.72" y1="374.24" x2="262.65" y2="374.28"/><line class="cls-7" x1="274.94" y1="356.51" x2="274.71" y2="372.17"/><line class="cls-7" x1="283.11" y1="371.71" x2="274" y2="371.78"/><polygon class="cls-4" points="256.17 250.38 256.17 252.73 256.17 253.63 265.11 254.03 265.11 249.73 256.17 250.38"/><polygon class="cls-4" points="274.12 249.73 274.12 254.03 281.76 253.14 282.57 249.73 274.12 249.73"/><polygon class="cls-8" points="245.91 296.59 296 297.18 284.21 353.16 256.52 364.95 245.91 296.59"/><polygon class="cls-2" points="409.78 490.57 447.6 489.64 450.37 538.07 408.86 537.61 409.78 490.57"/><polygon class="cls-9" points="402.4 538.53 454.98 538.53 456.36 628 402.4 538.53"/><polygon class="cls-1" points="508.18 546.3 494.61 551.01 484.36 557.1 479.1 562.09 476.06 569.57 473.01 577.87 471.9 587.84 471.9 596.43 471.9 604.18 472.18 613.33 471.07 617.48 467.19 622.47 462.48 626.07 458.33 628.28 456.11 629.67 467.47 632.71 477.99 634.37 484.09 634.37 490.73 633.27 497.38 629.67 502.64 624.96 505.41 617.2 505.41 610.28 504.03 601.69 500.98 593.38 499.04 585.63 498.21 576.21 498.49 569.29 499.87 561.53 502.92 553.5 508.18 546.3"/><circle class="cls-4" cx="424.47" cy="505.66" r="2.55"/><circle class="cls-4" cx="433.09" cy="505.66" r="2.55"/><polygon class="cls-5" points="403.47 275.81 463.79 276.36 457.76 352.04 396.07 347.38 403.47 275.81"/><polygon class="cls-3" points="367.81 275.67 403.47 275.81 399.89 306.77 380.38 302.8 367.81 275.67"/><polygon class="cls-9" points="513.03 276 510.38 273.36 473.67 272.7 463.79 276.36 461.43 308.42 513.03 276"/><ellipse class="cls-4" cx="426.23" cy="300.49" rx="6.17" ry="11.35"/><ellipse class="cls-4" cx="441.84" cy="305.72" rx="3.71" ry="6.82"/><circle class="cls-7" cx="446.63" cy="339.51" r="4.17"/><polygon class="cls-2" points="416.65 43.84 459.59 43.39 459.59 0 414.84 2.71 416.65 43.84"/><rect class="cls-9" x="418.07" y="43.48" width="7.57" height="104.13"/><rect class="cls-9" x="450.14" y="43.45" width="6.85" height="103.05"/><circle class="cls-4" cx="432.74" cy="15.67" r="2.65"/><circle class="cls-4" cx="441.72" cy="15.67" r="2.65"/><polygon class="cls-2" points="211.75 719.84 265.64 714.79 266.2 740.05 278.55 740.05 277.43 717.04 331.88 717.04 336.94 767.56 280.8 768.12 279.68 755.77 268.45 754.09 267.89 769.81 212.31 773.74 211.75 719.84"/><line class="cls-10" x1="237.13" y1="772.03" x2="242.66" y2="826.96"/><line class="cls-10" x1="310.02" y1="767.97" x2="314.38" y2="818.23"/><polygon class="cls-1" points="210.11 839.8 257.91 820.14 254.86 842.01 210.11 839.8"/><polygon class="cls-1" points="307.58 812.51 352.67 829.97 307.75 834.21 307.58 812.51"/><ellipse class="cls-4" cx="238.66" cy="743.85" rx="4.9" ry="9.02"/><ellipse class="cls-4" cx="306.11" cy="743.85" rx="4.9" ry="9.02"/><line class="cls-11" x1="284.14" y1="693.99" x2="277.8" y2="701.2"/><line class="cls-11" x1="277.8" y1="701.2" x2="283.27" y2="699.93"/><line class="cls-11" x1="283.27" y1="699.93" x2="277.42" y2="706.85"/><polygon class="cls-2" points="41.38 534.38 43.66 530.83 48.18 528.22 56.16 527.1 64.5 527.4 73.26 528.35 77.5 529.74 81.74 533.15 84.8 537.86 85.58 544.11 85.63 549.85 84.07 556.39 81.63 562.25 76.87 567.94 71.37 571.26 64.17 572.28 56.94 571.6 50.07 570.32 44.6 566.67 41.28 561.32 39.36 555.76 38.71 549.83 38.9 543.03 39.34 539.03 41.38 534.38"/><polygon class="cls-3" points="42.87 525.66 84.37 528.93 77.54 477.81 42.87 525.66"/><polygon class="cls-5" points="16.28 564.5 44.6 566.67 50.07 570.32 60.59 572.05 71.37 571.26 76.1 569.82 110.36 573.76 106.81 596.05 97.48 612.16 90.9 620.08 75.84 625.94 60.16 627.19 45.93 624.95 34.55 619.8 24.05 612.56 17.98 603.72 13.51 595.96 11.97 587.45 12.51 580.05 16.28 564.5"/><ellipse class="cls-4" cx="57.7" cy="543.39" rx="3.35" ry="2.7" transform="translate(-488.45 561.37) rotate(-85.82)"/><ellipse class="cls-4" cx="68.18" cy="544.15" rx="3.35" ry="2.7" transform="translate(-479.5 572.52) rotate(-85.82)"/><polygon class="cls-8" points="55.92 4.04 85.14 8.5 108.42 52.59 88.11 50.61 53.94 50.61 55.92 4.04"/><polygon class="cls-1" points="62.29 52.35 90.59 55.84 118.01 107.64 83.19 110.69 57.07 150.73 50.97 125.05 48.36 104.16 48.8 85.87 49.23 77.17 62.29 52.35"/><polygon class="cls-2" points="49.23 77.17 18.76 78.04 43.57 93.27 49.23 77.17"/><polygon class="cls-2" points="96.68 67.59 118.45 60.62 121.93 69.33 105.82 76.3 96.68 67.59"/><circle class="cls-4" cx="83.24" cy="23.54" r="2.87"/><polygon class="cls-9" points="296.73 5.57 290.16 6.52 246.8 60.6 322.4 33.87 296.73 5.57"/><polygon class="cls-5" points="246.57 60.6 225.77 86.07 316.66 85.13 318.94 81.98 289.02 45.19 246.57 60.6"/><polygon class="cls-3" points="259.21 85.61 259.21 150.53 288.75 150.06 289.68 85.61 259.21 85.61"/><polyline class="cls-11" points="322.4 33.87 322.32 42.04 317.04 35.12 316.49 44.22 310.12 37.85 309.21 45.86 303.38 39.85 302.83 48.77 296.1 42.04 296.28 50.41 287.17 44.77"/><polyline class="cls-11" points="293.55 53.7 302.65 52.63 300.08 58.73 307.36 56.91 304.79 64.94 312.93 63.33 309.61 71.25 317.53 69.75 314.85 76.07 322.24 73.61 318.94 81.98"/><circle class="cls-4" cx="303.85" cy="27.72" r="2.49"/><polygon class="cls-2" points="218.97 538.46 237.89 538.46 254.07 538.6 269.56 538.6 282.04 538.87 296.3 539.69 316.73 541.06 269.12 624.65 218.97 538.46"/><polygon class="cls-1" points="218.97 538.46 218.69 527.65 225.72 515.81 241.76 502.16 250.32 497.68 259.02 495.65 265.31 494.91 271.6 494.54 277.7 494.72 283.62 496.02 288.99 498.79 292.13 500.83 295.09 502.86 298.61 505.61 313.77 523.39 316.92 529.5 316.73 541.06 218.97 538.46"/><polygon class="cls-5" points="244.41 517.55 241.76 502.16 239.64 494.74 236.99 489.61 232.56 484.3 227.26 480.23 221.42 478.82 215.76 479.7 212.05 482.35 207.98 486.42 204.97 490.14 203.56 494.91 203.56 498.98 204.44 503.4 206.74 507.65 209.39 511.18 212.22 513.84 217.53 514.72 230.44 516.31 244.41 517.55"/><polygon class="cls-5" points="297.76 522.95 298.44 512.24 298.61 505.61 300.99 499.15 303.2 494.4 305.24 489.98 309.66 487.26 314.42 485.39 321.89 485.05 328.01 487.77 332.09 490.66 336.85 495.76 338.2 501.19 338.38 505.61 337.87 510.54 337.19 514.79 334.47 518.36 330.05 520.4 323.76 521.93 317.47 522.78 297.76 522.95"/><ellipse class="cls-4" cx="221.7" cy="499.07" rx="3.62" ry="6.66"/><ellipse class="cls-4" cx="319.25" cy="505.8" rx="3.62" ry="6.66"/><polygon class="cls-8" points="34.83 706.46 112.77 705.57 68.36 770 32.22 743.15 34.83 706.46"/><polygon class="cls-9" points="128.44 830.09 3.05 788.73 71.4 772.62 128.44 830.09"/><polygon class="cls-3" points="62.52 808 69.25 837.01 82.24 814.96 62.52 808"/><polygon class="cls-3" points="90.83 817.51 99.42 851.16 116.12 826.1 90.83 817.51"/><polyline class="cls-12" points="113.57 815.19 116.59 811.48 120.76 814.5 117.28 819.14"/><polyline class="cls-12" points="119.6 821.23 122.85 817.51 126.33 819.83 123.55 824.48"/><polyline class="cls-12" points="109.48 709.63 114.04 714.54 110.06 718.04 106.56 713.95"/><polyline class="cls-12" points="105.62 715.47 109.36 719.45 105.15 723.77 102.23 719.57"/><polygon class="cls-2" points="0 790.03 71.4 772.62 32.22 742.14 0 790.03"/><circle class="cls-4" cx="62.33" cy="750.58" r="3.15"/><circle class="cls-4" cx="73.02" cy="750.58" r="3.15"/><polygon class="cls-1" points="455.64 701.65 491.85 763.66 468.12 840.66 430.25 777.4 455.64 701.65"/><polygon class="cls-8" points="432.82 815.52 464.37 815.01 465.56 844.53 434.18 845.21 432.82 815.52"/><polygon class="cls-8" points="469.12 813.65 499.66 811.79 502.2 841.64 469.46 844.36 469.12 813.65"/><polygon class="cls-2" points="420.68 746.6 504.33 744.1 460.22 788.64 420.68 746.6"/><circle class="cls-4" cx="453.56" cy="739.75" r="2.96"/><circle class="cls-4" cx="463.58" cy="739.75" r="2.96"/></g></g></svg>