<svg xmlns="http://www.w3.org/2000/svg" viewBox="0 0 1081.22 378.35"><defs><style>.cls-1{fill:#ea2929;}.cls-2{fill:#f3eb3d;}.cls-3{fill:#a5cd39;}.cls-4{fill:#221f1f;}.cls-5{fill:#acdfe8;}.cls-10,.cls-11,.cls-12,.cls-6,.cls-7{fill:none;stroke:#221f1f;stroke-miterlimit:10;}.cls-6{stroke-width:2px;}.cls-8{fill:#f89922;}.cls-9{fill:#ea4094;}.cls-10{stroke-width:3px;}.cls-11{stroke-width:0.75px;}.cls-12{stroke-width:1.42px;}</style></defs><title>smallercharacters</title><g id="Layer_2" data-name="Layer 2"><g id="Layer_1-2" data-name="Layer 1"><polygon class="cls-1" points="616.06 278.4 600.75 297.78 598.11 306.63 596.92 315.96 597.63 329.12 599.79 342.04 605.29 350.9 611.99 358.79 621.32 367.65 627.07 371 635.44 373.63 641.66 375.06 654.11 375.54 664.15 374.35 673.97 371.95 685.45 367.17 693.83 359.27 697.41 354.49 701.48 346.83 704.83 337.02 707.46 327.93 706.99 310.46 704.35 298.73 700.29 290.36 694.54 280.55 683.3 272.89 674.92 269.54 667.03 265.48 650.04 265.24 630.65 270.98 621.8 274.09 616.06 278.4"/><polygon class="cls-2" points="704.02 247.86 703.76 259.87 699.58 266.4 693.31 269.27 685.74 270.58 678.69 270.58 674.92 269.54 667.03 265.48 662.24 260.92 661.45 254.39 662.24 246.56 665.11 239.5 672.42 234.02 680.51 231.15 688.61 231.15 696.97 235.59 702.19 241.07 704.02 247.86"/><polygon class="cls-3" points="617.58 243.94 624.37 242.64 629.33 242.64 634.55 244.47 636.9 248.12 638.99 253.87 640.3 259.35 639.78 263.27 635.6 267.45 630.65 270.98 625.67 272.93 619.93 272.67 615.49 269.54 611.57 265.1 610.27 259.87 609.74 254.65 611.83 248.38 617.58 243.94"/><ellipse class="cls-4" cx="624.76" cy="258.13" rx="4.21" ry="5.9"/><ellipse class="cls-4" cx="683.57" cy="250.86" rx="4.21" ry="5.9"/><polygon class="cls-5" points="811.15 233.25 864.19 232.08 861.83 285.7 813.51 285.7 811.15 233.25"/><line class="cls-6" x1="838.26" y1="285.7" x2="838.26" y2="298.67"/><line class="cls-7" x1="830.08" y1="363.43" x2="830.12" y2="375.98"/><line class="cls-7" x1="824.91" y1="375.73" x2="830.84" y2="375.77"/><line class="cls-7" x1="843.13" y1="358" x2="842.9" y2="373.66"/><line class="cls-7" x1="851.3" y1="373.2" x2="842.19" y2="373.28"/><polygon class="cls-4" points="824.36 251.87 824.36 254.22 824.36 255.12 833.29 255.52 833.29 251.22 824.36 251.87"/><polygon class="cls-4" points="842.31 251.22 842.31 255.52 849.95 254.63 850.76 251.22 842.31 251.22"/><polygon class="cls-8" points="814.1 298.08 864.19 298.67 852.4 354.65 824.71 366.44 814.1 298.08"/><polygon class="cls-2" points="420.78 8.75 458.6 7.83 461.37 56.26 419.86 55.79 420.78 8.75"/><polygon class="cls-9" points="413.4 56.72 465.98 56.72 467.36 146.19 413.4 56.72"/><polygon class="cls-1" points="519.18 64.49 505.61 69.19 495.36 75.29 490.1 80.27 487.06 87.75 484.01 96.06 482.9 106.03 482.9 114.62 482.9 122.37 483.18 131.51 482.07 135.67 478.19 140.65 473.48 144.25 469.33 146.47 467.11 147.85 478.47 150.9 488.99 152.56 495.09 152.56 501.73 151.45 508.38 147.85 513.64 143.14 516.41 135.39 516.41 128.47 515.03 119.88 511.98 111.57 510.04 103.81 509.21 94.4 509.49 87.47 510.87 79.72 513.92 71.69 519.18 64.49"/><circle class="cls-4" cx="435.47" cy="23.85" r="2.55"/><circle class="cls-4" cx="444.09" cy="23.85" r="2.55"/><polygon class="cls-5" points="971.66 279.31 1031.98 279.85 1025.95 355.53 964.25 350.87 971.66 279.31"/><polygon class="cls-3" points="936 279.17 971.66 279.31 968.08 310.26 948.57 306.29 936 279.17"/><polygon class="cls-9" points="1081.22 279.5 1078.57 276.85 1041.85 276.19 1031.98 279.85 1029.61 311.92 1081.22 279.5"/><ellipse class="cls-4" cx="994.42" cy="303.98" rx="6.17" ry="11.35"/><ellipse class="cls-4" cx="1010.03" cy="309.21" rx="3.71" ry="6.82"/><circle class="cls-7" cx="1014.82" cy="343" r="4.17"/><polygon class="cls-2" points="984.84 47.34 1027.78 46.88 1027.78 3.49 983.03 6.2 984.84 47.34"/><rect class="cls-9" x="986.26" y="46.97" width="7.57" height="104.13"/><rect class="cls-9" x="1018.33" y="46.94" width="6.85" height="103.05"/><circle class="cls-4" cx="1000.93" cy="19.16" r="2.65"/><circle class="cls-4" cx="1009.91" cy="19.16" r="2.65"/><polygon class="cls-2" points="209.75 246.03 263.64 240.98 264.2 266.24 276.55 266.24 275.43 243.22 329.88 243.22 334.94 293.75 278.8 294.31 277.68 281.96 266.45 280.27 265.89 295.99 210.31 299.92 209.75 246.03"/><line class="cls-10" x1="235.13" y1="298.22" x2="240.66" y2="353.14"/><line class="cls-10" x1="308.02" y1="294.15" x2="312.38" y2="344.41"/><polygon class="cls-1" points="208.11 365.99 255.91 346.32 252.86 368.19 208.11 365.99"/><polygon class="cls-1" points="305.58 338.7 350.67 356.16 305.75 360.39 305.58 338.7"/><ellipse class="cls-4" cx="236.66" cy="270.03" rx="4.9" ry="9.02"/><ellipse class="cls-4" cx="304.11" cy="270.03" rx="4.9" ry="9.02"/><line class="cls-11" x1="282.14" y1="220.18" x2="275.8" y2="227.38"/><line class="cls-11" x1="275.8" y1="227.38" x2="281.27" y2="226.12"/><line class="cls-11" x1="281.27" y1="226.12" x2="275.42" y2="233.03"/><polygon class="cls-2" points="41.38 56.57 43.66 53.02 48.18 50.41 56.16 49.29 64.5 49.59 73.26 50.53 77.5 51.93 81.74 55.33 84.8 60.05 85.58 66.3 85.63 72.03 84.07 78.58 81.63 84.44 76.87 90.13 71.37 93.44 64.17 94.47 56.94 93.78 50.07 92.51 44.6 88.86 41.28 83.5 39.36 77.94 38.71 72.01 38.9 65.21 39.34 61.22 41.38 56.57"/><polygon class="cls-3" points="42.87 47.84 84.37 51.11 77.54 0 42.87 47.84"/><polygon class="cls-5" points="16.28 86.68 44.6 88.86 50.07 92.51 60.59 94.23 71.37 93.44 76.1 92.01 110.36 95.95 106.81 118.24 97.48 134.35 90.9 142.26 75.84 148.12 60.16 149.38 45.93 147.14 34.55 141.99 24.05 134.75 17.98 125.91 13.51 118.14 11.97 109.64 12.51 102.24 16.28 86.68"/><ellipse class="cls-4" cx="57.7" cy="65.57" rx="3.35" ry="2.7" transform="translate(-11.9 118.35) rotate(-85.82)"/><ellipse class="cls-4" cx="68.18" cy="66.34" rx="3.35" ry="2.7" transform="translate(-2.95 129.5) rotate(-85.82)"/><polygon class="cls-8" points="624.11 7.53 653.33 11.99 676.62 56.08 656.3 54.1 622.12 54.1 624.11 7.53"/><polygon class="cls-1" points="630.48 55.84 658.78 59.33 686.2 111.13 651.38 114.18 625.26 154.22 619.16 128.54 616.55 107.65 616.99 89.36 617.42 80.66 630.48 55.84"/><polygon class="cls-2" points="617.42 80.66 586.95 81.53 611.76 96.76 617.42 80.66"/><polygon class="cls-2" points="664.87 71.08 686.64 64.11 690.12 72.82 674.01 79.79 664.87 71.08"/><circle class="cls-4" cx="651.43" cy="27.03" r="2.87"/><polygon class="cls-9" points="864.91 9.06 858.35 10.01 814.99 64.09 890.59 37.37 864.91 9.06"/><polygon class="cls-5" points="814.76 64.09 793.96 89.56 884.85 88.62 887.13 85.47 857.21 48.69 814.76 64.09"/><polygon class="cls-3" points="827.4 89.1 827.4 154.02 856.94 153.56 857.87 89.1 827.4 89.1"/><polyline class="cls-11" points="890.59 37.37 890.51 45.53 885.23 38.61 884.68 47.71 878.31 41.34 877.39 49.35 871.57 43.34 871.02 52.27 864.28 45.53 864.47 53.91 855.36 48.26"/><polyline class="cls-11" points="861.74 57.19 870.84 56.12 868.27 62.22 875.55 60.4 872.98 68.43 881.12 66.82 877.8 74.74 885.72 73.24 883.04 79.56 890.43 77.1 887.13 85.47"/><circle class="cls-4" cx="872.04" cy="31.21" r="2.49"/><polygon class="cls-2" points="218.97 69.64 237.89 69.64 254.07 69.78 269.56 69.78 282.04 70.06 296.3 70.88 316.73 72.25 269.12 155.84 218.97 69.64"/><polygon class="cls-1" points="218.97 69.64 218.69 58.84 225.72 47 241.76 33.35 250.32 28.87 259.02 26.83 265.31 26.09 271.6 25.73 277.7 25.91 283.62 27.2 288.99 29.98 292.13 32.01 295.09 34.05 298.61 36.8 313.77 54.58 316.92 60.69 316.73 72.25 218.97 69.64"/><polygon class="cls-5" points="244.41 48.74 241.76 33.35 239.64 25.92 236.99 20.79 232.56 15.48 227.26 11.42 221.42 10 215.76 10.89 212.05 13.54 207.98 17.61 204.97 21.32 203.56 26.1 203.56 30.17 204.44 34.59 206.74 38.83 209.39 42.37 212.22 45.02 217.53 45.91 230.44 47.5 244.41 48.74"/><polygon class="cls-5" points="297.76 54.13 298.44 43.43 298.61 36.8 300.99 30.34 303.2 25.58 305.24 21.16 309.66 18.45 314.42 16.58 321.89 16.24 328.01 18.96 332.09 21.84 336.85 26.94 338.2 32.38 338.38 36.8 337.87 41.73 337.19 45.98 334.47 49.54 330.05 51.58 323.76 53.11 317.47 53.96 297.76 54.13"/><ellipse class="cls-4" cx="221.7" cy="30.25" rx="3.62" ry="6.66"/><ellipse class="cls-4" cx="319.25" cy="36.99" rx="3.62" ry="6.66"/><polygon class="cls-8" points="34.83 233.65 112.77 232.75 68.36 297.19 32.22 270.34 34.83 233.65"/><polygon class="cls-9" points="128.44 357.27 3.05 315.91 71.4 299.8 128.44 357.27"/><polygon class="cls-3" points="62.52 335.19 69.25 364.19 82.24 342.15 62.52 335.19"/><polygon class="cls-3" points="90.83 344.7 99.42 378.35 116.12 353.29 90.83 344.7"/><polyline class="cls-12" points="113.57 342.38 116.59 338.67 120.76 341.68 117.28 346.32"/><polyline class="cls-12" points="119.6 348.41 122.85 344.7 126.33 347.02 123.55 351.66"/><polyline class="cls-12" points="109.48 236.81 114.04 241.72 110.06 245.23 106.56 241.14"/><polyline class="cls-12" points="105.62 242.66 109.36 246.63 105.15 250.96 102.23 246.75"/><polygon class="cls-2" points="0 317.22 71.4 299.8 32.22 269.32 0 317.22"/><circle class="cls-4" cx="62.33" cy="277.77" r="3.15"/><circle class="cls-4" cx="73.02" cy="277.77" r="3.15"/><polygon class="cls-1" points="457.64 219.84 493.85 281.85 470.12 358.85 432.25 295.58 457.64 219.84"/><polygon class="cls-8" points="434.82 333.7 466.37 333.2 467.56 362.71 436.18 363.39 434.82 333.7"/><polygon class="cls-8" points="471.12 331.84 501.66 329.97 504.2 359.83 471.46 362.54 471.12 331.84"/><polygon class="cls-2" points="422.68 264.79 506.33 262.29 462.22 306.82 422.68 264.79"/><circle class="cls-4" cx="455.56" cy="257.93" r="2.96"/><circle class="cls-4" cx="465.58" cy="257.93" r="2.96"/></g></g></svg>